<?xml version="1.0" encoding="utf-8"?>
<!-- Generator: Adobe Illustrator 24.3.0, SVG Export Plug-In . SVG Version: 6.00 Build 0)  -->
<svg version="1.1" id="Lag_1" xmlns="http://www.w3.org/2000/svg" xmlns:xlink="http://www.w3.org/1999/xlink" x="0px" y="0px"
	 viewBox="0 0 458.5 140.2" style="enable-background:new 0 0 458.5 140.2;" xml:space="preserve">
<style type="text/css">
	.st0{font-family:'Futura';}
	.st1{font-size:12.82px;}
	.st2{fill:#E43E4C;}
	.st3{font-size:27.15px;}
	.st4{fill:none;}
	.st5{font-size:9.05px;}
	.st6{fill:none;stroke:#7AC2B1;stroke-width:2;stroke-miterlimit:10;}
</style>
<text transform="matrix(1 0 0 1 17.22 16.4451)" class="st0 st1">Dine samlede skridt</text>
<text transform="matrix(1 0 0 1 165.35 16.5351)" class="st0 st1">Holdets samlede skridt</text>
<text transform="matrix(1 0 0 1 332.01 16.9151)" class="st0 st1">Gennemfø</text>
<text transform="matrix(1 0 0 1 388.21 16.9151)" class="st0 st1">r</text>
<text transform="matrix(1 0 0 1 392.97 16.9151)" class="st0 st1">te dage</text>
<text transform="matrix(1 0 0 1 346.33 71.2751)" class="st2 st0 st3">8/14</text>
<line class="st4" x1="44.7" y1="96.2" x2="43.2" y2="94.3"/>
<text transform="matrix(1 0 0 1 28.24 68.0251)" class="st2 st0 st3">20.380</text>
<text transform="matrix(1 0 0 1 183.58 71.4151)" class="st2 st0 st3">60.870</text>
<text transform="matrix(1 0 0 1 29.63 87.7551)" class="st0 st5">Dit gennemsnit pr dag</text>
<text transform="matrix(1 0 0 1 176.78 91.8451)" class="st0 st5">Holdets gennemsnit pr dag</text>
<text transform="matrix(1 0 0 1 53.29 103.0051)" class="st0 st5">8.400</text>
<text transform="matrix(1 0 0 1 213.97 108.1151)" class="st0 st5">9580</text>
<text transform="matrix(1 0 0 1 356.14 93.6551)" class="st0 st5">Dage tilbage</text>
<text transform="matrix(1 0 0 1 375.11 108.1051)" class="st0 st5">6</text>
<path class="st6" d="M439.2,131.6H322.6c-5.5,0-10-4.5-10-10v-89c0-5.5,4.5-10,10-10h116.5c5.5,0,10,4.5,10,10v89
	C449.2,127.1,444.7,131.6,439.2,131.6z"/>
<path class="st6" d="M286.9,131.8H170.4c-5.5,0-10-4.5-10-10v-89c0-5.5,4.5-10,10-10h116.5c5.5,0,10,4.5,10,10v89
	C296.9,127.3,292.4,131.8,286.9,131.8z"/>
<path class="st6" d="M134.9,130.8H18.3c-5.5,0-10-4.5-10-10v-89c0-5.5,4.5-10,10-10h116.5c5.5,0,10,4.5,10,10v89
	C144.9,126.3,140.4,130.8,134.9,130.8z"/>
</svg>
