<svg id="Lag_1" data-name="Lag 1" xmlns="http://www.w3.org/2000/svg" viewBox="0 0 903.09 536.02"><defs><style>.cls-1{opacity:0.2;}.cls-2,.cls-7{fill:#7ac2b1;}.cls-3{font-size:12.82px;}.cls-3,.cls-5,.cls-7,.cls-8,.cls-9{font-family:Futura;}.cls-4{letter-spacing:0.02em;}.cls-5{font-size:27.15px;fill:#e43e4c;}.cls-6{fill:none;}.cls-7,.cls-8,.cls-9{font-size:9.05px;}.cls-8{fill:#6daa9a;}.cls-9{fill:#406056;}</style></defs><g class="cls-1"><rect class="cls-2" x="0.5" y="16.1" width="135.49" height="107.97"/><path d="M149.49,31.41v107H15v-107H149.49m1-1H14v109H150.49v-109Z" transform="translate(-14 -14.8)"/></g><g class="cls-1"><rect class="cls-2" x="153.96" y="16.86" width="135.49" height="107.97"/><path d="M303,32.16v107H168.46v-107H303m1-1H167.46v109H304v-109Z" transform="translate(-14 -14.8)"/></g><g class="cls-1"><rect class="cls-2" x="307.79" y="16.86" width="135.49" height="107.97"/><path d="M456.78,32.16v107H322.29v-107H456.78m1-1H321.29v109H457.78v-109Z" transform="translate(-14 -14.8)"/></g><text class="cls-3" transform="translate(10.22 11.24)">Dine samlede skridt</text><text class="cls-3" transform="translate(158.35 11.33)">Holdets samlede skridt</text><text class="cls-3" transform="translate(325.01 11.71)">Gennemfø<tspan class="cls-4" x="56.2" y="0">r</tspan><tspan x="60.96" y="0">te dage</tspan></text><text class="cls-5" transform="translate(339.33 66.07)">8/14</text><text x="-14" y="-14.8"/><line class="cls-6" x1="37.7" y1="91.01" x2="36.2" y2="89.13"/><text x="-14" y="-14.8"/><text class="cls-5" transform="translate(21.24 62.82)">20.380</text><text class="cls-5" transform="translate(176.58 66.21)">60.870</text><text class="cls-7" transform="translate(22.63 82.55)">Dit gennemsnit pr dag</text><text class="cls-8" transform="translate(169.78 86.64)">Holdets gennemsnit pr dag</text><text class="cls-9" transform="translate(46.29 97.8)">8.400</text><text class="cls-9" transform="translate(206.97 102.91)">9580</text><text class="cls-7" transform="translate(349.14 88.45)">Dage tilbage</text><text class="cls-9" transform="translate(368.11 102.9)">6</text></svg>